solid 10lb - 10lb_4.5kg_Dumbbell_Gray-1
   facet normal 0.000000e+000 -1.000000e+000 0.000000e+000
      outer loop
         vertex 4.847013e-002 4.827842e-004 8.473804e-002
         vertex 5.228013e-002 4.827842e-004 8.854803e-002
         vertex 1.799013e-002 4.827842e-004 8.473804e-002
      endloop
   endfacet
   facet normal 0.000000e+000 -1.000000e+000 0.000000e+000
      outer loop
         vertex 1.799013e-002 4.827842e-004 8.473804e-002
         vertex 5.228013e-002 4.827842e-004 8.854803e-002
         vertex 1.418013e-002 4.827842e-004 8.854803e-002
      endloop
   endfacet
   facet normal 0.000000e+000 -1.000000e+000 0.000000e+000
      outer loop
         vertex 1.799013e-002 4.827842e-004 8.473804e-002
         vertex 1.418013e-002 4.827842e-004 8.854803e-002
         vertex 1.799013e-002 4.827842e-004 3.369925e-002
      endloop
   endfacet
   facet normal 0.000000e+000 -1.000000e+000 0.000000e+000
      outer loop
         vertex 1.799013e-002 4.827842e-004 3.369925e-002
         vertex 1.418013e-002 4.827842e-004 8.854803e-002
         vertex 1.418013e-002 4.827842e-004 2.988925e-002
      endloop
   endfacet
   facet normal 0.000000e+000 -1.000000e+000 0.000000e+000
      outer loop
         vertex 1.799013e-002 4.827842e-004 3.369925e-002
         vertex 1.418013e-002 4.827842e-004 2.988925e-002
         vertex 4.847013e-002 4.827842e-004 3.369925e-002
      endloop
   endfacet
   facet normal 0.000000e+000 -1.000000e+000 0.000000e+000
      outer loop
         vertex 4.847013e-002 4.827842e-004 3.369925e-002
         vertex 1.418013e-002 4.827842e-004 2.988925e-002
         vertex 5.228013e-002 4.827842e-004 2.988925e-002
      endloop
   endfacet
   facet normal 0.000000e+000 -1.000000e+000 0.000000e+000
      outer loop
         vertex 4.847013e-002 4.827842e-004 3.369925e-002
         vertex 5.228013e-002 4.827842e-004 2.988925e-002
         vertex 4.847013e-002 4.827842e-004 8.473804e-002
      endloop
   endfacet
   facet normal 0.000000e+000 -1.000000e+000 0.000000e+000
      outer loop
         vertex 4.847013e-002 4.827842e-004 8.473804e-002
         vertex 5.228013e-002 4.827842e-004 2.988925e-002
         vertex 5.228013e-002 4.827842e-004 8.854803e-002
      endloop
   endfacet
   facet normal 0.000000e+000 1.000000e+000 0.000000e+000
      outer loop
         vertex 2.643701e-001 1.020828e-001 8.473804e-002
         vertex 2.681801e-001 1.020828e-001 8.854803e-002
         vertex 2.681801e-001 1.020828e-001 2.988925e-002
      endloop
   endfacet
   facet normal 0.000000e+000 1.000000e+000 0.000000e+000
      outer loop
         vertex 2.681801e-001 1.020828e-001 8.854803e-002
         vertex 2.643701e-001 1.020828e-001 8.473804e-002
         vertex 2.300801e-001 1.020828e-001 8.854803e-002
      endloop
   endfacet
   facet normal 0.000000e+000 1.000000e+000 0.000000e+000
      outer loop
         vertex 2.300801e-001 1.020828e-001 8.854803e-002
         vertex 2.643701e-001 1.020828e-001 8.473804e-002
         vertex 2.338901e-001 1.020828e-001 8.473804e-002
      endloop
   endfacet
   facet normal 0.000000e+000 1.000000e+000 0.000000e+000
      outer loop
         vertex 2.300801e-001 1.020828e-001 8.854803e-002
         vertex 2.338901e-001 1.020828e-001 8.473804e-002
         vertex 2.300801e-001 1.020828e-001 2.988925e-002
      endloop
   endfacet
   facet normal 0.000000e+000 1.000000e+000 0.000000e+000
      outer loop
         vertex 2.300801e-001 1.020828e-001 2.988925e-002
         vertex 2.338901e-001 1.020828e-001 8.473804e-002
         vertex 2.338901e-001 1.020828e-001 3.369925e-002
      endloop
   endfacet
   facet normal 0.000000e+000 1.000000e+000 0.000000e+000
      outer loop
         vertex 2.300801e-001 1.020828e-001 2.988925e-002
         vertex 2.338901e-001 1.020828e-001 3.369925e-002
         vertex 2.681801e-001 1.020828e-001 2.988925e-002
      endloop
   endfacet
   facet normal 0.000000e+000 1.000000e+000 0.000000e+000
      outer loop
         vertex 2.681801e-001 1.020828e-001 2.988925e-002
         vertex 2.338901e-001 1.020828e-001 3.369925e-002
         vertex 2.643701e-001 1.020828e-001 3.369925e-002
      endloop
   endfacet
   facet normal 0.000000e+000 1.000000e+000 0.000000e+000
      outer loop
         vertex 2.681801e-001 1.020828e-001 2.988925e-002
         vertex 2.643701e-001 1.020828e-001 3.369925e-002
         vertex 2.643701e-001 1.020828e-001 8.473804e-002
      endloop
   endfacet
   facet normal 0.000000e+000 6.964291e-002 -9.975720e-001
      outer loop
         vertex 2.173801e-001 5.458338e-002 4.369055e-002
         vertex 2.173801e-001 5.128278e-002 4.334364e-002
         vertex 6.498013e-002 5.128278e-002 4.334364e-002
      endloop
   endfacet
   facet normal 0.000000e+000 -6.964291e-002 -9.975720e-001
      outer loop
         vertex 6.498013e-002 5.128278e-002 4.334364e-002
         vertex 2.173801e-001 5.128278e-002 4.334364e-002
         vertex 6.498013e-002 4.798219e-002 4.369055e-002
      endloop
   endfacet
   facet normal 0.000000e+000 1.392858e-001 -9.902522e-001
      outer loop
         vertex 6.498013e-002 5.128278e-002 4.334364e-002
         vertex 6.498013e-002 5.458338e-002 4.369055e-002
         vertex 2.173801e-001 5.458338e-002 4.369055e-002
      endloop
   endfacet
   facet normal 0.000000e+000 3.411547e-001 -9.400072e-001
      outer loop
         vertex 2.173801e-001 5.458338e-002 4.369055e-002
         vertex 6.498013e-002 5.458338e-002 4.369055e-002
         vertex 6.498013e-002 6.061387e-002 4.637550e-002
      endloop
   endfacet
   facet normal 0.000000e+000 4.702844e-001 -8.825150e-001
      outer loop
         vertex 2.173801e-001 5.458338e-002 4.369055e-002
         vertex 6.498013e-002 6.061387e-002 4.637550e-002
         vertex 2.173801e-001 6.061387e-002 4.637550e-002
      endloop
   endfacet
   facet normal 0.000000e+000 6.939957e-001 -7.199791e-001
      outer loop
         vertex 2.173801e-001 6.061387e-002 4.637550e-002
         vertex 6.498013e-002 6.061387e-002 4.637550e-002
         vertex 6.498013e-002 6.503094e-002 5.128114e-002
      endloop
   endfacet
   facet normal 0.000000e+000 7.885774e-001 -6.149356e-001
      outer loop
         vertex 2.173801e-001 6.061387e-002 4.637550e-002
         vertex 6.498013e-002 6.503094e-002 5.128114e-002
         vertex 2.173801e-001 6.503094e-002 5.128114e-002
      endloop
   endfacet
   facet normal 0.000000e+000 9.268385e-001 -3.754602e-001
      outer loop
         vertex 2.173801e-001 6.503094e-002 5.128114e-002
         vertex 6.498013e-002 6.503094e-002 5.128114e-002
         vertex 6.498013e-002 6.707082e-002 5.755925e-002
      endloop
   endfacet
   facet normal 0.000000e+000 9.705181e-001 -2.410284e-001
      outer loop
         vertex 2.173801e-001 6.503094e-002 5.128114e-002
         vertex 6.498013e-002 6.707082e-002 5.755925e-002
         vertex 2.173801e-001 6.707082e-002 5.755925e-002
      endloop
   endfacet
   facet normal 0.000000e+000 9.994226e-001 3.397923e-002
      outer loop
         vertex 2.173801e-001 6.707082e-002 5.755925e-002
         vertex 6.498013e-002 6.707082e-002 5.755925e-002
         vertex 6.498013e-002 6.638081e-002 6.412429e-002
      endloop
   endfacet
   facet normal 0.000000e+000 9.846475e-001 1.745549e-001
      outer loop
         vertex 2.173801e-001 6.707082e-002 5.755925e-002
         vertex 6.498013e-002 6.638081e-002 6.412429e-002
         vertex 2.173801e-001 6.638081e-002 6.412429e-002
      endloop
   endfacet
   facet normal 0.000000e+000 8.991973e-001 4.375433e-001
      outer loop
         vertex 2.173801e-001 6.638081e-002 6.412429e-002
         vertex 6.498013e-002 6.638081e-002 6.412429e-002
         vertex 6.498013e-002 6.308021e-002 6.984109e-002
      endloop
   endfacet
   facet normal 0.000000e+000 8.285223e-001 5.599561e-001
      outer loop
         vertex 2.173801e-001 6.638081e-002 6.412429e-002
         vertex 6.498013e-002 6.308021e-002 6.984109e-002
         vertex 2.173801e-001 6.308021e-002 6.984109e-002
      endloop
   endfacet
   facet normal 0.000000e+000 6.434927e-001 7.654523e-001
      outer loop
         vertex 2.173801e-001 6.308021e-002 6.984109e-002
         vertex 6.498013e-002 6.308021e-002 6.984109e-002
         vertex 6.498013e-002 5.773973e-002 7.372118e-002
      endloop
   endfacet
   facet normal 0.000000e+000 5.291381e-001 8.485357e-001
      outer loop
         vertex 2.173801e-001 6.308021e-002 6.984109e-002
         vertex 6.498013e-002 5.773973e-002 7.372118e-002
         vertex 2.173801e-001 5.773973e-002 7.372118e-002
      endloop
   endfacet
   facet normal 0.000000e+000 2.765224e-001 9.610075e-001
      outer loop
         vertex 2.173801e-001 5.773973e-002 7.372118e-002
         vertex 6.498013e-002 5.773973e-002 7.372118e-002
         vertex 6.498013e-002 5.128278e-002 7.509364e-002
      endloop
   endfacet
   facet normal 0.000000e+000 1.382612e-001 9.903958e-001
      outer loop
         vertex 2.173801e-001 5.773973e-002 7.372118e-002
         vertex 6.498013e-002 5.128278e-002 7.509364e-002
         vertex 2.173801e-001 5.128278e-002 7.509364e-002
      endloop
   endfacet
   facet normal 0.000000e+000 -1.382612e-001 9.903958e-001
      outer loop
         vertex 2.173801e-001 5.128278e-002 7.509364e-002
         vertex 6.498013e-002 5.128278e-002 7.509364e-002
         vertex 6.498013e-002 4.482584e-002 7.372118e-002
      endloop
   endfacet
   facet normal 0.000000e+000 -2.765224e-001 9.610075e-001
      outer loop
         vertex 2.173801e-001 5.128278e-002 7.509364e-002
         vertex 6.498013e-002 4.482584e-002 7.372118e-002
         vertex 2.173801e-001 4.482584e-002 7.372118e-002
      endloop
   endfacet
   facet normal 0.000000e+000 -5.291381e-001 8.485357e-001
      outer loop
         vertex 2.173801e-001 4.482584e-002 7.372118e-002
         vertex 6.498013e-002 4.482584e-002 7.372118e-002
         vertex 6.498013e-002 3.948536e-002 6.984109e-002
      endloop
   endfacet
   facet normal 0.000000e+000 -6.434927e-001 7.654522e-001
      outer loop
         vertex 2.173801e-001 4.482584e-002 7.372118e-002
         vertex 6.498013e-002 3.948536e-002 6.984109e-002
         vertex 2.173801e-001 3.948536e-002 6.984109e-002
      endloop
   endfacet
   facet normal 0.000000e+000 -8.285223e-001 5.599561e-001
      outer loop
         vertex 2.173801e-001 3.948536e-002 6.984109e-002
         vertex 6.498013e-002 3.948536e-002 6.984109e-002
         vertex 6.498013e-002 3.618476e-002 6.412429e-002
      endloop
   endfacet
   facet normal 0.000000e+000 -8.991973e-001 4.375433e-001
      outer loop
         vertex 2.173801e-001 3.948536e-002 6.984109e-002
         vertex 6.498013e-002 3.618476e-002 6.412429e-002
         vertex 2.173801e-001 3.618476e-002 6.412429e-002
      endloop
   endfacet
   facet normal 0.000000e+000 -9.846475e-001 1.745549e-001
      outer loop
         vertex 2.173801e-001 3.618476e-002 6.412429e-002
         vertex 6.498013e-002 3.618476e-002 6.412429e-002
         vertex 6.498013e-002 3.549475e-002 5.755925e-002
      endloop
   endfacet
   facet normal 0.000000e+000 -9.994226e-001 3.397924e-002
      outer loop
         vertex 2.173801e-001 3.618476e-002 6.412429e-002
         vertex 6.498013e-002 3.549475e-002 5.755925e-002
         vertex 2.173801e-001 3.549475e-002 5.755925e-002
      endloop
   endfacet
   facet normal 0.000000e+000 -9.705181e-001 -2.410283e-001
      outer loop
         vertex 2.173801e-001 3.549475e-002 5.755925e-002
         vertex 6.498013e-002 3.549475e-002 5.755925e-002
         vertex 6.498013e-002 3.753463e-002 5.128114e-002
      endloop
   endfacet
   facet normal 0.000000e+000 -9.268385e-001 -3.754602e-001
      outer loop
         vertex 2.173801e-001 3.549475e-002 5.755925e-002
         vertex 6.498013e-002 3.753463e-002 5.128114e-002
         vertex 2.173801e-001 3.753463e-002 5.128114e-002
      endloop
   endfacet
   facet normal 0.000000e+000 -7.885774e-001 -6.149356e-001
      outer loop
         vertex 2.173801e-001 3.753463e-002 5.128114e-002
         vertex 6.498013e-002 3.753463e-002 5.128114e-002
         vertex 6.498013e-002 4.195169e-002 4.637550e-002
      endloop
   endfacet
   facet normal 0.000000e+000 -6.939957e-001 -7.199791e-001
      outer loop
         vertex 2.173801e-001 3.753463e-002 5.128114e-002
         vertex 6.498013e-002 4.195169e-002 4.637550e-002
         vertex 2.173801e-001 4.195169e-002 4.637550e-002
      endloop
   endfacet
   facet normal 0.000000e+000 -4.702844e-001 -8.825150e-001
      outer loop
         vertex 2.173801e-001 4.195169e-002 4.637550e-002
         vertex 6.498013e-002 4.195169e-002 4.637550e-002
         vertex 6.498013e-002 4.798219e-002 4.369055e-002
      endloop
   endfacet
   facet normal 0.000000e+000 -3.411547e-001 -9.400072e-001
      outer loop
         vertex 2.173801e-001 4.195169e-002 4.637550e-002
         vertex 6.498013e-002 4.798219e-002 4.369055e-002
         vertex 2.173801e-001 4.798219e-002 4.369055e-002
      endloop
   endfacet
   facet normal 0.000000e+000 -1.392858e-001 -9.902522e-001
      outer loop
         vertex 2.173801e-001 4.798219e-002 4.369055e-002
         vertex 6.498013e-002 4.798219e-002 4.369055e-002
         vertex 2.173801e-001 5.128278e-002 4.334364e-002
      endloop
   endfacet
   facet normal -1.000000e+000 0.000000e+000 0.000000e+000
      outer loop
         vertex 2.173801e-001 3.549475e-002 5.755925e-002
         vertex 2.173801e-001 1.318278e-002 3.722160e-002
         vertex 2.173801e-001 3.618476e-002 6.412429e-002
      endloop
   endfacet
   facet normal -1.000000e+000 0.000000e+000 0.000000e+000
      outer loop
         vertex 2.173801e-001 3.618476e-002 6.412429e-002
         vertex 2.173801e-001 1.318278e-002 3.722160e-002
         vertex 2.173801e-001 1.318278e-002 8.121569e-002
      endloop
   endfacet
   facet normal -1.000000e+000 0.000000e+000 0.000000e+000
      outer loop
         vertex 2.173801e-001 6.308021e-002 6.984109e-002
         vertex 2.173801e-001 5.773973e-002 7.372118e-002
         vertex 2.173801e-001 8.938278e-002 8.121569e-002
      endloop
   endfacet
   facet normal -1.000000e+000 0.000000e+000 0.000000e+000
      outer loop
         vertex 2.173801e-001 8.938278e-002 8.121569e-002
         vertex 2.173801e-001 5.773973e-002 7.372118e-002
         vertex 2.173801e-001 5.128278e-002 7.509364e-002
      endloop
   endfacet
   facet normal -1.000000e+000 0.000000e+000 0.000000e+000
      outer loop
         vertex 2.173801e-001 8.938278e-002 8.121569e-002
         vertex 2.173801e-001 5.128278e-002 7.509364e-002
         vertex 2.173801e-001 5.128278e-002 1.032127e-001
      endloop
   endfacet
   facet normal -1.000000e+000 0.000000e+000 0.000000e+000
      outer loop
         vertex 2.173801e-001 5.128278e-002 1.032127e-001
         vertex 2.173801e-001 5.128278e-002 7.509364e-002
         vertex 2.173801e-001 4.482584e-002 7.372118e-002
      endloop
   endfacet
   facet normal -1.000000e+000 0.000000e+000 0.000000e+000
      outer loop
         vertex 2.173801e-001 5.128278e-002 1.032127e-001
         vertex 2.173801e-001 4.482584e-002 7.372118e-002
         vertex 2.173801e-001 1.318278e-002 8.121569e-002
      endloop
   endfacet
   facet normal -1.000000e+000 0.000000e+000 0.000000e+000
      outer loop
         vertex 2.173801e-001 1.318278e-002 8.121569e-002
         vertex 2.173801e-001 4.482584e-002 7.372118e-002
         vertex 2.173801e-001 3.948536e-002 6.984109e-002
      endloop
   endfacet
   facet normal -1.000000e+000 0.000000e+000 0.000000e+000
      outer loop
         vertex 2.173801e-001 1.318278e-002 8.121569e-002
         vertex 2.173801e-001 3.948536e-002 6.984109e-002
         vertex 2.173801e-001 3.618476e-002 6.412429e-002
      endloop
   endfacet
   facet normal -1.000000e+000 0.000000e+000 0.000000e+000
      outer loop
         vertex 2.173801e-001 8.938278e-002 3.722160e-002
         vertex 2.173801e-001 6.503094e-002 5.128114e-002
         vertex 2.173801e-001 6.707082e-002 5.755925e-002
      endloop
   endfacet
   facet normal -1.000000e+000 0.000000e+000 0.000000e+000
      outer loop
         vertex 2.173801e-001 8.938278e-002 3.722160e-002
         vertex 2.173801e-001 6.707082e-002 5.755925e-002
         vertex 2.173801e-001 8.938278e-002 8.121569e-002
      endloop
   endfacet
   facet normal -1.000000e+000 0.000000e+000 0.000000e+000
      outer loop
         vertex 2.173801e-001 8.938278e-002 8.121569e-002
         vertex 2.173801e-001 6.707082e-002 5.755925e-002
         vertex 2.173801e-001 6.638081e-002 6.412429e-002
      endloop
   endfacet
   facet normal -1.000000e+000 0.000000e+000 0.000000e+000
      outer loop
         vertex 2.173801e-001 8.938278e-002 8.121569e-002
         vertex 2.173801e-001 6.638081e-002 6.412429e-002
         vertex 2.173801e-001 6.308021e-002 6.984109e-002
      endloop
   endfacet
   facet normal -1.000000e+000 0.000000e+000 0.000000e+000
      outer loop
         vertex 2.173801e-001 3.549475e-002 5.755925e-002
         vertex 2.173801e-001 3.753463e-002 5.128114e-002
         vertex 2.173801e-001 1.318278e-002 3.722160e-002
      endloop
   endfacet
   facet normal -1.000000e+000 0.000000e+000 0.000000e+000
      outer loop
         vertex 2.173801e-001 1.318278e-002 3.722160e-002
         vertex 2.173801e-001 3.753463e-002 5.128114e-002
         vertex 2.173801e-001 4.195169e-002 4.637550e-002
      endloop
   endfacet
   facet normal -1.000000e+000 0.000000e+000 0.000000e+000
      outer loop
         vertex 2.173801e-001 1.318278e-002 3.722160e-002
         vertex 2.173801e-001 4.195169e-002 4.637550e-002
         vertex 2.173801e-001 5.128278e-002 1.522455e-002
      endloop
   endfacet
   facet normal -1.000000e+000 0.000000e+000 0.000000e+000
      outer loop
         vertex 2.173801e-001 5.128278e-002 1.522455e-002
         vertex 2.173801e-001 4.195169e-002 4.637550e-002
         vertex 2.173801e-001 4.798219e-002 4.369055e-002
      endloop
   endfacet
   facet normal -1.000000e+000 0.000000e+000 0.000000e+000
      outer loop
         vertex 2.173801e-001 4.798219e-002 4.369055e-002
         vertex 2.173801e-001 5.128278e-002 4.334364e-002
         vertex 2.173801e-001 5.128278e-002 1.522455e-002
      endloop
   endfacet
   facet normal -1.000000e+000 0.000000e+000 0.000000e+000
      outer loop
         vertex 2.173801e-001 5.128278e-002 1.522455e-002
         vertex 2.173801e-001 5.128278e-002 4.334364e-002
         vertex 2.173801e-001 5.458338e-002 4.369055e-002
      endloop
   endfacet
   facet normal -1.000000e+000 0.000000e+000 0.000000e+000
      outer loop
         vertex 2.173801e-001 5.128278e-002 1.522455e-002
         vertex 2.173801e-001 5.458338e-002 4.369055e-002
         vertex 2.173801e-001 8.938278e-002 3.722160e-002
      endloop
   endfacet
   facet normal -1.000000e+000 0.000000e+000 0.000000e+000
      outer loop
         vertex 2.173801e-001 8.938278e-002 3.722160e-002
         vertex 2.173801e-001 5.458338e-002 4.369055e-002
         vertex 2.173801e-001 6.061387e-002 4.637550e-002
      endloop
   endfacet
   facet normal -1.000000e+000 0.000000e+000 0.000000e+000
      outer loop
         vertex 2.173801e-001 8.938278e-002 3.722160e-002
         vertex 2.173801e-001 6.061387e-002 4.637550e-002
         vertex 2.173801e-001 6.503094e-002 5.128114e-002
      endloop
   endfacet
   facet normal 0.000000e+000 -5.000000e-001 -8.660254e-001
      outer loop
         vertex 2.681801e-001 4.827842e-004 2.988925e-002
         vertex 2.300801e-001 4.827842e-004 2.988925e-002
         vertex 2.681801e-001 5.128278e-002 5.598556e-004
      endloop
   endfacet
   facet normal 0.000000e+000 -5.000000e-001 -8.660254e-001
      outer loop
         vertex 2.681801e-001 5.128278e-002 5.598556e-004
         vertex 2.300801e-001 4.827842e-004 2.988925e-002
         vertex 2.300801e-001 5.128278e-002 5.598556e-004
      endloop
   endfacet
   facet normal 0.000000e+000 5.000000e-001 -8.660254e-001
      outer loop
         vertex 2.681801e-001 5.128278e-002 5.598556e-004
         vertex 2.300801e-001 5.128278e-002 5.598556e-004
         vertex 2.681801e-001 1.020828e-001 2.988925e-002
      endloop
   endfacet
   facet normal 0.000000e+000 5.000000e-001 -8.660254e-001
      outer loop
         vertex 2.681801e-001 1.020828e-001 2.988925e-002
         vertex 2.300801e-001 5.128278e-002 5.598556e-004
         vertex 2.300801e-001 1.020828e-001 2.988925e-002
      endloop
   endfacet
   facet normal 0.000000e+000 5.000000e-001 8.660254e-001
      outer loop
         vertex 2.681801e-001 1.020828e-001 8.854803e-002
         vertex 2.300801e-001 1.020828e-001 8.854803e-002
         vertex 2.681801e-001 5.128278e-002 1.178774e-001
      endloop
   endfacet
   facet normal 0.000000e+000 5.000000e-001 8.660254e-001
      outer loop
         vertex 2.681801e-001 5.128278e-002 1.178774e-001
         vertex 2.300801e-001 1.020828e-001 8.854803e-002
         vertex 2.300801e-001 5.128278e-002 1.178774e-001
      endloop
   endfacet
   facet normal 0.000000e+000 -5.000000e-001 8.660254e-001
      outer loop
         vertex 2.681801e-001 5.128278e-002 1.178774e-001
         vertex 2.300801e-001 5.128278e-002 1.178774e-001
         vertex 2.681801e-001 4.827842e-004 8.854803e-002
      endloop
   endfacet
   facet normal 0.000000e+000 -5.000000e-001 8.660254e-001
      outer loop
         vertex 2.681801e-001 4.827842e-004 8.854803e-002
         vertex 2.300801e-001 5.128278e-002 1.178774e-001
         vertex 2.300801e-001 4.827842e-004 8.854803e-002
      endloop
   endfacet
   facet normal 0.000000e+000 -1.000000e+000 0.000000e+000
      outer loop
         vertex 2.338901e-001 4.827842e-004 8.473804e-002
         vertex 2.300801e-001 4.827842e-004 8.854803e-002
         vertex 2.338901e-001 4.827842e-004 3.369925e-002
      endloop
   endfacet
   facet normal 0.000000e+000 -1.000000e+000 0.000000e+000
      outer loop
         vertex 2.338901e-001 4.827842e-004 3.369925e-002
         vertex 2.300801e-001 4.827842e-004 8.854803e-002
         vertex 2.300801e-001 4.827842e-004 2.988925e-002
      endloop
   endfacet
   facet normal 0.000000e+000 -1.000000e+000 0.000000e+000
      outer loop
         vertex 2.338901e-001 4.827842e-004 3.369925e-002
         vertex 2.300801e-001 4.827842e-004 2.988925e-002
         vertex 2.643701e-001 4.827842e-004 3.369925e-002
      endloop
   endfacet
   facet normal 0.000000e+000 -1.000000e+000 0.000000e+000
      outer loop
         vertex 2.643701e-001 4.827842e-004 3.369925e-002
         vertex 2.300801e-001 4.827842e-004 2.988925e-002
         vertex 2.681801e-001 4.827842e-004 2.988925e-002
      endloop
   endfacet
   facet normal 0.000000e+000 -1.000000e+000 0.000000e+000
      outer loop
         vertex 2.643701e-001 4.827842e-004 3.369925e-002
         vertex 2.681801e-001 4.827842e-004 2.988925e-002
         vertex 2.643701e-001 4.827842e-004 8.473804e-002
      endloop
   endfacet
   facet normal 0.000000e+000 -1.000000e+000 0.000000e+000
      outer loop
         vertex 2.643701e-001 4.827842e-004 8.473804e-002
         vertex 2.681801e-001 4.827842e-004 2.988925e-002
         vertex 2.681801e-001 4.827842e-004 8.854803e-002
      endloop
   endfacet
   facet normal 0.000000e+000 -1.000000e+000 0.000000e+000
      outer loop
         vertex 2.643701e-001 4.827842e-004 8.473804e-002
         vertex 2.681801e-001 4.827842e-004 8.854803e-002
         vertex 2.338901e-001 4.827842e-004 8.473804e-002
      endloop
   endfacet
   facet normal 0.000000e+000 -1.000000e+000 0.000000e+000
      outer loop
         vertex 2.338901e-001 4.827842e-004 8.473804e-002
         vertex 2.681801e-001 4.827842e-004 8.854803e-002
         vertex 2.300801e-001 4.827842e-004 8.854803e-002
      endloop
   endfacet
   facet normal 1.000000e+000 0.000000e+000 0.000000e+000
      outer loop
         vertex 2.808801e-001 1.318278e-002 8.121569e-002
         vertex 2.808801e-001 1.318278e-002 3.722160e-002
         vertex 2.808801e-001 5.128278e-002 1.032127e-001
      endloop
   endfacet
   facet normal 1.000000e+000 0.000000e+000 0.000000e+000
      outer loop
         vertex 2.808801e-001 5.128278e-002 1.032127e-001
         vertex 2.808801e-001 1.318278e-002 3.722160e-002
         vertex 2.808801e-001 5.128278e-002 1.522455e-002
      endloop
   endfacet
   facet normal 1.000000e+000 0.000000e+000 0.000000e+000
      outer loop
         vertex 2.808801e-001 5.128278e-002 1.032127e-001
         vertex 2.808801e-001 5.128278e-002 1.522455e-002
         vertex 2.808801e-001 8.938278e-002 8.121569e-002
      endloop
   endfacet
   facet normal 1.000000e+000 0.000000e+000 0.000000e+000
      outer loop
         vertex 2.808801e-001 8.938278e-002 8.121569e-002
         vertex 2.808801e-001 5.128278e-002 1.522455e-002
         vertex 2.808801e-001 8.938278e-002 3.722160e-002
      endloop
   endfacet
   facet normal 7.071068e-001 7.071068e-001 0.000000e+000
      outer loop
         vertex 2.681801e-001 1.020828e-001 8.854803e-002
         vertex 2.808801e-001 8.938278e-002 8.121569e-002
         vertex 2.681801e-001 1.020828e-001 2.988925e-002
      endloop
   endfacet
   facet normal 7.071068e-001 7.071068e-001 0.000000e+000
      outer loop
         vertex 2.681801e-001 1.020828e-001 2.988925e-002
         vertex 2.808801e-001 8.938278e-002 8.121569e-002
         vertex 2.808801e-001 8.938278e-002 3.722160e-002
      endloop
   endfacet
   facet normal 7.071068e-001 3.535534e-001 6.123725e-001
      outer loop
         vertex 2.681801e-001 5.128278e-002 1.178774e-001
         vertex 2.808801e-001 5.128278e-002 1.032127e-001
         vertex 2.681801e-001 1.020828e-001 8.854803e-002
      endloop
   endfacet
   facet normal 7.071068e-001 3.535534e-001 6.123725e-001
      outer loop
         vertex 2.681801e-001 1.020828e-001 8.854803e-002
         vertex 2.808801e-001 5.128278e-002 1.032127e-001
         vertex 2.808801e-001 8.938278e-002 8.121569e-002
      endloop
   endfacet
   facet normal 7.071068e-001 3.535534e-001 -6.123725e-001
      outer loop
         vertex 2.808801e-001 5.128278e-002 1.522455e-002
         vertex 2.681801e-001 5.128278e-002 5.598556e-004
         vertex 2.808801e-001 8.938278e-002 3.722160e-002
      endloop
   endfacet
   facet normal 7.071068e-001 3.535534e-001 -6.123725e-001
      outer loop
         vertex 2.808801e-001 8.938278e-002 3.722160e-002
         vertex 2.681801e-001 5.128278e-002 5.598556e-004
         vertex 2.681801e-001 1.020828e-001 2.988925e-002
      endloop
   endfacet
   facet normal 7.071068e-001 -3.535534e-001 6.123725e-001
      outer loop
         vertex 2.681801e-001 4.827842e-004 8.854803e-002
         vertex 2.808801e-001 1.318278e-002 8.121569e-002
         vertex 2.681801e-001 5.128278e-002 1.178774e-001
      endloop
   endfacet
   facet normal 7.071068e-001 -3.535534e-001 6.123725e-001
      outer loop
         vertex 2.681801e-001 5.128278e-002 1.178774e-001
         vertex 2.808801e-001 1.318278e-002 8.121569e-002
         vertex 2.808801e-001 5.128278e-002 1.032127e-001
      endloop
   endfacet
   facet normal 7.071068e-001 -3.535534e-001 -6.123725e-001
      outer loop
         vertex 2.808801e-001 1.318278e-002 3.722160e-002
         vertex 2.681801e-001 4.827842e-004 2.988925e-002
         vertex 2.808801e-001 5.128278e-002 1.522455e-002
      endloop
   endfacet
   facet normal 7.071068e-001 -3.535534e-001 -6.123725e-001
      outer loop
         vertex 2.808801e-001 5.128278e-002 1.522455e-002
         vertex 2.681801e-001 4.827842e-004 2.988925e-002
         vertex 2.681801e-001 5.128278e-002 5.598556e-004
      endloop
   endfacet
   facet normal 7.071068e-001 -7.071068e-001 0.000000e+000
      outer loop
         vertex 2.681801e-001 4.827842e-004 2.988925e-002
         vertex 2.808801e-001 1.318278e-002 3.722160e-002
         vertex 2.681801e-001 4.827842e-004 8.854803e-002
      endloop
   endfacet
   facet normal 7.071068e-001 -7.071068e-001 0.000000e+000
      outer loop
         vertex 2.681801e-001 4.827842e-004 8.854803e-002
         vertex 2.808801e-001 1.318278e-002 3.722160e-002
         vertex 2.808801e-001 1.318278e-002 8.121569e-002
      endloop
   endfacet
   facet normal -7.071068e-001 3.535534e-001 6.123725e-001
      outer loop
         vertex 2.173801e-001 5.128278e-002 1.032127e-001
         vertex 2.300801e-001 5.128278e-002 1.178774e-001
         vertex 2.173801e-001 8.938278e-002 8.121569e-002
      endloop
   endfacet
   facet normal -7.071068e-001 3.535534e-001 6.123725e-001
      outer loop
         vertex 2.173801e-001 8.938278e-002 8.121569e-002
         vertex 2.300801e-001 5.128278e-002 1.178774e-001
         vertex 2.300801e-001 1.020828e-001 8.854803e-002
      endloop
   endfacet
   facet normal -7.071068e-001 -3.535534e-001 6.123725e-001
      outer loop
         vertex 2.173801e-001 1.318278e-002 8.121569e-002
         vertex 2.300801e-001 4.827842e-004 8.854803e-002
         vertex 2.173801e-001 5.128278e-002 1.032127e-001
      endloop
   endfacet
   facet normal -7.071068e-001 -3.535534e-001 6.123725e-001
      outer loop
         vertex 2.173801e-001 5.128278e-002 1.032127e-001
         vertex 2.300801e-001 4.827842e-004 8.854803e-002
         vertex 2.300801e-001 5.128278e-002 1.178774e-001
      endloop
   endfacet
   facet normal -7.071068e-001 7.071068e-001 0.000000e+000
      outer loop
         vertex 2.300801e-001 1.020828e-001 2.988925e-002
         vertex 2.173801e-001 8.938278e-002 3.722160e-002
         vertex 2.300801e-001 1.020828e-001 8.854803e-002
      endloop
   endfacet
   facet normal -7.071068e-001 7.071068e-001 0.000000e+000
      outer loop
         vertex 2.300801e-001 1.020828e-001 8.854803e-002
         vertex 2.173801e-001 8.938278e-002 3.722160e-002
         vertex 2.173801e-001 8.938278e-002 8.121569e-002
      endloop
   endfacet
   facet normal -7.071068e-001 -7.071068e-001 0.000000e+000
      outer loop
         vertex 2.173801e-001 1.318278e-002 3.722160e-002
         vertex 2.300801e-001 4.827842e-004 2.988925e-002
         vertex 2.173801e-001 1.318278e-002 8.121569e-002
      endloop
   endfacet
   facet normal -7.071068e-001 -7.071068e-001 0.000000e+000
      outer loop
         vertex 2.173801e-001 1.318278e-002 8.121569e-002
         vertex 2.300801e-001 4.827842e-004 2.988925e-002
         vertex 2.300801e-001 4.827842e-004 8.854803e-002
      endloop
   endfacet
   facet normal -7.071068e-001 3.535534e-001 -6.123725e-001
      outer loop
         vertex 2.300801e-001 5.128278e-002 5.598556e-004
         vertex 2.173801e-001 5.128278e-002 1.522455e-002
         vertex 2.300801e-001 1.020828e-001 2.988925e-002
      endloop
   endfacet
   facet normal -7.071068e-001 3.535534e-001 -6.123725e-001
      outer loop
         vertex 2.300801e-001 1.020828e-001 2.988925e-002
         vertex 2.173801e-001 5.128278e-002 1.522455e-002
         vertex 2.173801e-001 8.938278e-002 3.722160e-002
      endloop
   endfacet
   facet normal -7.071068e-001 -3.535534e-001 -6.123725e-001
      outer loop
         vertex 2.173801e-001 5.128278e-002 1.522455e-002
         vertex 2.300801e-001 5.128278e-002 5.598556e-004
         vertex 2.173801e-001 1.318278e-002 3.722160e-002
      endloop
   endfacet
   facet normal -7.071068e-001 -3.535534e-001 -6.123725e-001
      outer loop
         vertex 2.173801e-001 1.318278e-002 3.722160e-002
         vertex 2.300801e-001 5.128278e-002 5.598556e-004
         vertex 2.300801e-001 4.827842e-004 2.988925e-002
      endloop
   endfacet
   facet normal 1.000000e+000 0.000000e+000 0.000000e+000
      outer loop
         vertex 6.498013e-002 5.128278e-002 1.032127e-001
         vertex 6.498013e-002 5.128278e-002 7.509364e-002
         vertex 6.498013e-002 5.773973e-002 7.372118e-002
      endloop
   endfacet
   facet normal 1.000000e+000 0.000000e+000 0.000000e+000
      outer loop
         vertex 6.498013e-002 4.195169e-002 4.637550e-002
         vertex 6.498013e-002 3.753463e-002 5.128114e-002
         vertex 6.498013e-002 1.318278e-002 3.722160e-002
      endloop
   endfacet
   facet normal 1.000000e+000 0.000000e+000 0.000000e+000
      outer loop
         vertex 6.498013e-002 1.318278e-002 3.722160e-002
         vertex 6.498013e-002 3.753463e-002 5.128114e-002
         vertex 6.498013e-002 3.549475e-002 5.755925e-002
      endloop
   endfacet
   facet normal 1.000000e+000 0.000000e+000 0.000000e+000
      outer loop
         vertex 6.498013e-002 1.318278e-002 3.722160e-002
         vertex 6.498013e-002 3.549475e-002 5.755925e-002
         vertex 6.498013e-002 1.318278e-002 8.121569e-002
      endloop
   endfacet
   facet normal 1.000000e+000 0.000000e+000 0.000000e+000
      outer loop
         vertex 6.498013e-002 5.128278e-002 1.032127e-001
         vertex 6.498013e-002 5.773973e-002 7.372118e-002
         vertex 6.498013e-002 8.938278e-002 8.121569e-002
      endloop
   endfacet
   facet normal 1.000000e+000 0.000000e+000 0.000000e+000
      outer loop
         vertex 6.498013e-002 4.195169e-002 4.637550e-002
         vertex 6.498013e-002 1.318278e-002 3.722160e-002
         vertex 6.498013e-002 4.798219e-002 4.369055e-002
      endloop
   endfacet
   facet normal 1.000000e+000 0.000000e+000 0.000000e+000
      outer loop
         vertex 6.498013e-002 4.798219e-002 4.369055e-002
         vertex 6.498013e-002 1.318278e-002 3.722160e-002
         vertex 6.498013e-002 5.128278e-002 1.522455e-002
      endloop
   endfacet
   facet normal 1.000000e+000 0.000000e+000 0.000000e+000
      outer loop
         vertex 6.498013e-002 4.798219e-002 4.369055e-002
         vertex 6.498013e-002 5.128278e-002 1.522455e-002
         vertex 6.498013e-002 5.128278e-002 4.334364e-002
      endloop
   endfacet
   facet normal 1.000000e+000 0.000000e+000 0.000000e+000
      outer loop
         vertex 6.498013e-002 3.549475e-002 5.755925e-002
         vertex 6.498013e-002 3.618476e-002 6.412429e-002
         vertex 6.498013e-002 1.318278e-002 8.121569e-002
      endloop
   endfacet
   facet normal 1.000000e+000 0.000000e+000 0.000000e+000
      outer loop
         vertex 6.498013e-002 1.318278e-002 8.121569e-002
         vertex 6.498013e-002 3.618476e-002 6.412429e-002
         vertex 6.498013e-002 3.948536e-002 6.984109e-002
      endloop
   endfacet
   facet normal 1.000000e+000 0.000000e+000 0.000000e+000
      outer loop
         vertex 6.498013e-002 1.318278e-002 8.121569e-002
         vertex 6.498013e-002 3.948536e-002 6.984109e-002
         vertex 6.498013e-002 5.128278e-002 1.032127e-001
      endloop
   endfacet
   facet normal 1.000000e+000 0.000000e+000 0.000000e+000
      outer loop
         vertex 6.498013e-002 5.128278e-002 1.032127e-001
         vertex 6.498013e-002 3.948536e-002 6.984109e-002
         vertex 6.498013e-002 4.482584e-002 7.372118e-002
      endloop
   endfacet
   facet normal 1.000000e+000 0.000000e+000 0.000000e+000
      outer loop
         vertex 6.498013e-002 5.128278e-002 1.032127e-001
         vertex 6.498013e-002 4.482584e-002 7.372118e-002
         vertex 6.498013e-002 5.128278e-002 7.509364e-002
      endloop
   endfacet
   facet normal 1.000000e+000 0.000000e+000 0.000000e+000
      outer loop
         vertex 6.498013e-002 5.773973e-002 7.372118e-002
         vertex 6.498013e-002 6.308021e-002 6.984109e-002
         vertex 6.498013e-002 8.938278e-002 8.121569e-002
      endloop
   endfacet
   facet normal 1.000000e+000 0.000000e+000 0.000000e+000
      outer loop
         vertex 6.498013e-002 8.938278e-002 8.121569e-002
         vertex 6.498013e-002 6.308021e-002 6.984109e-002
         vertex 6.498013e-002 6.638081e-002 6.412429e-002
      endloop
   endfacet
   facet normal 1.000000e+000 0.000000e+000 0.000000e+000
      outer loop
         vertex 6.498013e-002 8.938278e-002 8.121569e-002
         vertex 6.498013e-002 6.638081e-002 6.412429e-002
         vertex 6.498013e-002 8.938278e-002 3.722160e-002
      endloop
   endfacet
   facet normal 1.000000e+000 0.000000e+000 0.000000e+000
      outer loop
         vertex 6.498013e-002 8.938278e-002 3.722160e-002
         vertex 6.498013e-002 6.638081e-002 6.412429e-002
         vertex 6.498013e-002 6.707082e-002 5.755925e-002
      endloop
   endfacet
   facet normal 1.000000e+000 0.000000e+000 0.000000e+000
      outer loop
         vertex 6.498013e-002 6.707082e-002 5.755925e-002
         vertex 6.498013e-002 6.503094e-002 5.128114e-002
         vertex 6.498013e-002 8.938278e-002 3.722160e-002
      endloop
   endfacet
   facet normal 1.000000e+000 0.000000e+000 0.000000e+000
      outer loop
         vertex 6.498013e-002 8.938278e-002 3.722160e-002
         vertex 6.498013e-002 6.503094e-002 5.128114e-002
         vertex 6.498013e-002 6.061387e-002 4.637550e-002
      endloop
   endfacet
   facet normal 1.000000e+000 0.000000e+000 0.000000e+000
      outer loop
         vertex 6.498013e-002 8.938278e-002 3.722160e-002
         vertex 6.498013e-002 6.061387e-002 4.637550e-002
         vertex 6.498013e-002 5.128278e-002 1.522455e-002
      endloop
   endfacet
   facet normal 1.000000e+000 0.000000e+000 0.000000e+000
      outer loop
         vertex 6.498013e-002 5.128278e-002 1.522455e-002
         vertex 6.498013e-002 6.061387e-002 4.637550e-002
         vertex 6.498013e-002 5.458338e-002 4.369055e-002
      endloop
   endfacet
   facet normal 1.000000e+000 0.000000e+000 0.000000e+000
      outer loop
         vertex 6.498013e-002 5.128278e-002 1.522455e-002
         vertex 6.498013e-002 5.458338e-002 4.369055e-002
         vertex 6.498013e-002 5.128278e-002 4.334364e-002
      endloop
   endfacet
   facet normal 0.000000e+000 -5.000000e-001 -8.660254e-001
      outer loop
         vertex 5.228013e-002 4.827842e-004 2.988925e-002
         vertex 1.418013e-002 4.827842e-004 2.988925e-002
         vertex 5.228013e-002 5.128278e-002 5.598556e-004
      endloop
   endfacet
   facet normal 0.000000e+000 -5.000000e-001 -8.660254e-001
      outer loop
         vertex 5.228013e-002 5.128278e-002 5.598556e-004
         vertex 1.418013e-002 4.827842e-004 2.988925e-002
         vertex 1.418013e-002 5.128278e-002 5.598556e-004
      endloop
   endfacet
   facet normal 0.000000e+000 5.000000e-001 -8.660254e-001
      outer loop
         vertex 5.228013e-002 5.128278e-002 5.598556e-004
         vertex 1.418013e-002 5.128278e-002 5.598556e-004
         vertex 5.228013e-002 1.020828e-001 2.988925e-002
      endloop
   endfacet
   facet normal 0.000000e+000 5.000000e-001 -8.660254e-001
      outer loop
         vertex 5.228013e-002 1.020828e-001 2.988925e-002
         vertex 1.418013e-002 5.128278e-002 5.598556e-004
         vertex 1.418013e-002 1.020828e-001 2.988925e-002
      endloop
   endfacet
   facet normal 0.000000e+000 1.000000e+000 0.000000e+000
      outer loop
         vertex 1.799013e-002 1.020828e-001 8.473804e-002
         vertex 1.418013e-002 1.020828e-001 8.854803e-002
         vertex 5.228013e-002 1.020828e-001 8.854803e-002
      endloop
   endfacet
   facet normal 0.000000e+000 1.000000e+000 0.000000e+000
      outer loop
         vertex 1.418013e-002 1.020828e-001 8.854803e-002
         vertex 1.799013e-002 1.020828e-001 8.473804e-002
         vertex 1.418013e-002 1.020828e-001 2.988925e-002
      endloop
   endfacet
   facet normal 0.000000e+000 1.000000e+000 0.000000e+000
      outer loop
         vertex 1.418013e-002 1.020828e-001 2.988925e-002
         vertex 1.799013e-002 1.020828e-001 8.473804e-002
         vertex 1.799013e-002 1.020828e-001 3.369925e-002
      endloop
   endfacet
   facet normal 0.000000e+000 1.000000e+000 0.000000e+000
      outer loop
         vertex 1.418013e-002 1.020828e-001 2.988925e-002
         vertex 1.799013e-002 1.020828e-001 3.369925e-002
         vertex 5.228013e-002 1.020828e-001 2.988925e-002
      endloop
   endfacet
   facet normal 0.000000e+000 1.000000e+000 0.000000e+000
      outer loop
         vertex 5.228013e-002 1.020828e-001 2.988925e-002
         vertex 1.799013e-002 1.020828e-001 3.369925e-002
         vertex 4.847013e-002 1.020828e-001 3.369925e-002
      endloop
   endfacet
   facet normal 0.000000e+000 1.000000e+000 0.000000e+000
      outer loop
         vertex 5.228013e-002 1.020828e-001 2.988925e-002
         vertex 4.847013e-002 1.020828e-001 3.369925e-002
         vertex 5.228013e-002 1.020828e-001 8.854803e-002
      endloop
   endfacet
   facet normal 0.000000e+000 1.000000e+000 0.000000e+000
      outer loop
         vertex 5.228013e-002 1.020828e-001 8.854803e-002
         vertex 4.847013e-002 1.020828e-001 3.369925e-002
         vertex 4.847013e-002 1.020828e-001 8.473804e-002
      endloop
   endfacet
   facet normal 0.000000e+000 1.000000e+000 0.000000e+000
      outer loop
         vertex 5.228013e-002 1.020828e-001 8.854803e-002
         vertex 4.847013e-002 1.020828e-001 8.473804e-002
         vertex 1.799013e-002 1.020828e-001 8.473804e-002
      endloop
   endfacet
   facet normal 0.000000e+000 5.000000e-001 8.660254e-001
      outer loop
         vertex 5.228013e-002 1.020828e-001 8.854803e-002
         vertex 1.418013e-002 1.020828e-001 8.854803e-002
         vertex 5.228013e-002 5.128278e-002 1.178774e-001
      endloop
   endfacet
   facet normal 0.000000e+000 5.000000e-001 8.660254e-001
      outer loop
         vertex 5.228013e-002 5.128278e-002 1.178774e-001
         vertex 1.418013e-002 1.020828e-001 8.854803e-002
         vertex 1.418013e-002 5.128278e-002 1.178774e-001
      endloop
   endfacet
   facet normal 0.000000e+000 -5.000000e-001 8.660254e-001
      outer loop
         vertex 5.228013e-002 5.128278e-002 1.178774e-001
         vertex 1.418013e-002 5.128278e-002 1.178774e-001
         vertex 5.228013e-002 4.827842e-004 8.854803e-002
      endloop
   endfacet
   facet normal 0.000000e+000 -5.000000e-001 8.660254e-001
      outer loop
         vertex 5.228013e-002 4.827842e-004 8.854803e-002
         vertex 1.418013e-002 5.128278e-002 1.178774e-001
         vertex 1.418013e-002 4.827842e-004 8.854803e-002
      endloop
   endfacet
   facet normal -1.000000e+000 0.000000e+000 0.000000e+000
      outer loop
         vertex 1.480134e-003 8.938278e-002 8.121569e-002
         vertex 1.480134e-003 8.938278e-002 3.722160e-002
         vertex 1.480134e-003 5.128278e-002 1.032127e-001
      endloop
   endfacet
   facet normal -1.000000e+000 0.000000e+000 0.000000e+000
      outer loop
         vertex 1.480134e-003 5.128278e-002 1.032127e-001
         vertex 1.480134e-003 8.938278e-002 3.722160e-002
         vertex 1.480134e-003 5.128278e-002 1.522455e-002
      endloop
   endfacet
   facet normal -1.000000e+000 0.000000e+000 0.000000e+000
      outer loop
         vertex 1.480134e-003 5.128278e-002 1.032127e-001
         vertex 1.480134e-003 5.128278e-002 1.522455e-002
         vertex 1.480134e-003 1.318278e-002 8.121569e-002
      endloop
   endfacet
   facet normal -1.000000e+000 0.000000e+000 0.000000e+000
      outer loop
         vertex 1.480134e-003 1.318278e-002 8.121569e-002
         vertex 1.480134e-003 5.128278e-002 1.522455e-002
         vertex 1.480134e-003 1.318278e-002 3.722160e-002
      endloop
   endfacet
   facet normal -7.071068e-001 7.071068e-001 0.000000e+000
      outer loop
         vertex 1.480134e-003 8.938278e-002 8.121569e-002
         vertex 1.418013e-002 1.020828e-001 8.854803e-002
         vertex 1.480134e-003 8.938278e-002 3.722160e-002
      endloop
   endfacet
   facet normal -7.071068e-001 7.071068e-001 0.000000e+000
      outer loop
         vertex 1.480134e-003 8.938278e-002 3.722160e-002
         vertex 1.418013e-002 1.020828e-001 8.854803e-002
         vertex 1.418013e-002 1.020828e-001 2.988925e-002
      endloop
   endfacet
   facet normal -7.071068e-001 3.535534e-001 6.123725e-001
      outer loop
         vertex 1.480134e-003 5.128278e-002 1.032127e-001
         vertex 1.418013e-002 5.128278e-002 1.178774e-001
         vertex 1.480134e-003 8.938278e-002 8.121569e-002
      endloop
   endfacet
   facet normal -7.071068e-001 3.535534e-001 6.123725e-001
      outer loop
         vertex 1.480134e-003 8.938278e-002 8.121569e-002
         vertex 1.418013e-002 5.128278e-002 1.178774e-001
         vertex 1.418013e-002 1.020828e-001 8.854803e-002
      endloop
   endfacet
   facet normal -7.071068e-001 3.535534e-001 -6.123725e-001
      outer loop
         vertex 1.418013e-002 5.128278e-002 5.598556e-004
         vertex 1.480134e-003 5.128278e-002 1.522455e-002
         vertex 1.418013e-002 1.020828e-001 2.988925e-002
      endloop
   endfacet
   facet normal -7.071068e-001 3.535534e-001 -6.123725e-001
      outer loop
         vertex 1.418013e-002 1.020828e-001 2.988925e-002
         vertex 1.480134e-003 5.128278e-002 1.522455e-002
         vertex 1.480134e-003 8.938278e-002 3.722160e-002
      endloop
   endfacet
   facet normal -7.071068e-001 -3.535534e-001 6.123725e-001
      outer loop
         vertex 1.480134e-003 1.318278e-002 8.121569e-002
         vertex 1.418013e-002 4.827842e-004 8.854803e-002
         vertex 1.480134e-003 5.128278e-002 1.032127e-001
      endloop
   endfacet
   facet normal -7.071068e-001 -3.535534e-001 6.123725e-001
      outer loop
         vertex 1.480134e-003 5.128278e-002 1.032127e-001
         vertex 1.418013e-002 4.827842e-004 8.854803e-002
         vertex 1.418013e-002 5.128278e-002 1.178774e-001
      endloop
   endfacet
   facet normal -7.071068e-001 -3.535534e-001 -6.123725e-001
      outer loop
         vertex 1.418013e-002 4.827842e-004 2.988925e-002
         vertex 1.480134e-003 1.318278e-002 3.722160e-002
         vertex 1.418013e-002 5.128278e-002 5.598556e-004
      endloop
   endfacet
   facet normal -7.071068e-001 -3.535534e-001 -6.123725e-001
      outer loop
         vertex 1.418013e-002 5.128278e-002 5.598556e-004
         vertex 1.480134e-003 1.318278e-002 3.722160e-002
         vertex 1.480134e-003 5.128278e-002 1.522455e-002
      endloop
   endfacet
   facet normal -7.071068e-001 -7.071068e-001 0.000000e+000
      outer loop
         vertex 1.480134e-003 1.318278e-002 3.722160e-002
         vertex 1.418013e-002 4.827842e-004 2.988925e-002
         vertex 1.480134e-003 1.318278e-002 8.121569e-002
      endloop
   endfacet
   facet normal -7.071068e-001 -7.071068e-001 0.000000e+000
      outer loop
         vertex 1.480134e-003 1.318278e-002 8.121569e-002
         vertex 1.418013e-002 4.827842e-004 2.988925e-002
         vertex 1.418013e-002 4.827842e-004 8.854803e-002
      endloop
   endfacet
   facet normal 7.071068e-001 3.535534e-001 6.123725e-001
      outer loop
         vertex 5.228013e-002 5.128278e-002 1.178774e-001
         vertex 6.498013e-002 5.128278e-002 1.032127e-001
         vertex 5.228013e-002 1.020828e-001 8.854803e-002
      endloop
   endfacet
   facet normal 7.071068e-001 3.535534e-001 6.123725e-001
      outer loop
         vertex 5.228013e-002 1.020828e-001 8.854803e-002
         vertex 6.498013e-002 5.128278e-002 1.032127e-001
         vertex 6.498013e-002 8.938278e-002 8.121569e-002
      endloop
   endfacet
   facet normal 7.071068e-001 -3.535534e-001 6.123725e-001
      outer loop
         vertex 5.228013e-002 4.827842e-004 8.854803e-002
         vertex 6.498013e-002 1.318278e-002 8.121569e-002
         vertex 5.228013e-002 5.128278e-002 1.178774e-001
      endloop
   endfacet
   facet normal 7.071068e-001 -3.535534e-001 6.123725e-001
      outer loop
         vertex 5.228013e-002 5.128278e-002 1.178774e-001
         vertex 6.498013e-002 1.318278e-002 8.121569e-002
         vertex 6.498013e-002 5.128278e-002 1.032127e-001
      endloop
   endfacet
   facet normal 7.071068e-001 7.071068e-001 0.000000e+000
      outer loop
         vertex 6.498013e-002 8.938278e-002 3.722160e-002
         vertex 5.228013e-002 1.020828e-001 2.988925e-002
         vertex 6.498013e-002 8.938278e-002 8.121569e-002
      endloop
   endfacet
   facet normal 7.071068e-001 7.071068e-001 0.000000e+000
      outer loop
         vertex 6.498013e-002 8.938278e-002 8.121569e-002
         vertex 5.228013e-002 1.020828e-001 2.988925e-002
         vertex 5.228013e-002 1.020828e-001 8.854803e-002
      endloop
   endfacet
   facet normal 7.071068e-001 -7.071068e-001 0.000000e+000
      outer loop
         vertex 5.228013e-002 4.827842e-004 2.988925e-002
         vertex 6.498013e-002 1.318278e-002 3.722160e-002
         vertex 5.228013e-002 4.827842e-004 8.854803e-002
      endloop
   endfacet
   facet normal 7.071068e-001 -7.071068e-001 0.000000e+000
      outer loop
         vertex 5.228013e-002 4.827842e-004 8.854803e-002
         vertex 6.498013e-002 1.318278e-002 3.722160e-002
         vertex 6.498013e-002 1.318278e-002 8.121569e-002
      endloop
   endfacet
   facet normal 7.071068e-001 3.535534e-001 -6.123725e-001
      outer loop
         vertex 6.498013e-002 5.128278e-002 1.522455e-002
         vertex 5.228013e-002 5.128278e-002 5.598556e-004
         vertex 6.498013e-002 8.938278e-002 3.722160e-002
      endloop
   endfacet
   facet normal 7.071068e-001 3.535534e-001 -6.123725e-001
      outer loop
         vertex 6.498013e-002 8.938278e-002 3.722160e-002
         vertex 5.228013e-002 5.128278e-002 5.598556e-004
         vertex 5.228013e-002 1.020828e-001 2.988925e-002
      endloop
   endfacet
   facet normal 7.071068e-001 -3.535534e-001 -6.123725e-001
      outer loop
         vertex 5.228013e-002 5.128278e-002 5.598556e-004
         vertex 6.498013e-002 5.128278e-002 1.522455e-002
         vertex 5.228013e-002 4.827842e-004 2.988925e-002
      endloop
   endfacet
   facet normal 7.071068e-001 -3.535534e-001 -6.123725e-001
      outer loop
         vertex 5.228013e-002 4.827842e-004 2.988925e-002
         vertex 6.498013e-002 5.128278e-002 1.522455e-002
         vertex 6.498013e-002 1.318278e-002 3.722160e-002
      endloop
   endfacet
   facet normal 1.000000e+000 0.000000e+000 0.000000e+000
      outer loop
         vertex 1.799013e-002 9.954278e-002 8.473804e-002
         vertex 1.799013e-002 9.954278e-002 3.369925e-002
         vertex 1.799013e-002 1.020828e-001 8.473804e-002
      endloop
   endfacet
   facet normal 1.000000e+000 0.000000e+000 0.000000e+000
      outer loop
         vertex 1.799013e-002 1.020828e-001 8.473804e-002
         vertex 1.799013e-002 9.954278e-002 3.369925e-002
         vertex 1.799013e-002 1.020828e-001 3.369925e-002
      endloop
   endfacet
   facet normal 0.000000e+000 0.000000e+000 1.000000e+000
      outer loop
         vertex 1.799013e-002 9.954278e-002 3.369925e-002
         vertex 4.847013e-002 9.954278e-002 3.369925e-002
         vertex 1.799013e-002 1.020828e-001 3.369925e-002
      endloop
   endfacet
   facet normal 0.000000e+000 0.000000e+000 1.000000e+000
      outer loop
         vertex 1.799013e-002 1.020828e-001 3.369925e-002
         vertex 4.847013e-002 9.954278e-002 3.369925e-002
         vertex 4.847013e-002 1.020828e-001 3.369925e-002
      endloop
   endfacet
   facet normal -1.000000e+000 0.000000e+000 0.000000e+000
      outer loop
         vertex 4.847013e-002 9.954278e-002 3.369925e-002
         vertex 4.847013e-002 9.954278e-002 8.473804e-002
         vertex 4.847013e-002 1.020828e-001 3.369925e-002
      endloop
   endfacet
   facet normal -1.000000e+000 0.000000e+000 0.000000e+000
      outer loop
         vertex 4.847013e-002 1.020828e-001 3.369925e-002
         vertex 4.847013e-002 9.954278e-002 8.473804e-002
         vertex 4.847013e-002 1.020828e-001 8.473804e-002
      endloop
   endfacet
   facet normal 0.000000e+000 0.000000e+000 -1.000000e+000
      outer loop
         vertex 4.847013e-002 9.954278e-002 8.473804e-002
         vertex 1.799013e-002 9.954278e-002 8.473804e-002
         vertex 4.847013e-002 1.020828e-001 8.473804e-002
      endloop
   endfacet
   facet normal 0.000000e+000 0.000000e+000 -1.000000e+000
      outer loop
         vertex 4.847013e-002 1.020828e-001 8.473804e-002
         vertex 1.799013e-002 9.954278e-002 8.473804e-002
         vertex 1.799013e-002 1.020828e-001 8.473804e-002
      endloop
   endfacet
   facet normal 0.000000e+000 1.000000e+000 0.000000e+000
      outer loop
         vertex 4.847013e-002 9.954278e-002 8.473804e-002
         vertex 4.847013e-002 9.954278e-002 3.369925e-002
         vertex 1.799013e-002 9.954278e-002 8.473804e-002
      endloop
   endfacet
   facet normal 0.000000e+000 1.000000e+000 0.000000e+000
      outer loop
         vertex 1.799013e-002 9.954278e-002 8.473804e-002
         vertex 4.847013e-002 9.954278e-002 3.369925e-002
         vertex 1.799013e-002 9.954278e-002 3.369925e-002
      endloop
   endfacet
   facet normal -1.000000e+000 0.000000e+000 0.000000e+000
      outer loop
         vertex 2.643701e-001 9.954278e-002 3.369925e-002
         vertex 2.643701e-001 9.954278e-002 8.473804e-002
         vertex 2.643701e-001 1.020828e-001 3.369925e-002
      endloop
   endfacet
   facet normal -1.000000e+000 0.000000e+000 0.000000e+000
      outer loop
         vertex 2.643701e-001 1.020828e-001 3.369925e-002
         vertex 2.643701e-001 9.954278e-002 8.473804e-002
         vertex 2.643701e-001 1.020828e-001 8.473804e-002
      endloop
   endfacet
   facet normal 0.000000e+000 0.000000e+000 -1.000000e+000
      outer loop
         vertex 2.643701e-001 9.954278e-002 8.473804e-002
         vertex 2.338901e-001 9.954278e-002 8.473804e-002
         vertex 2.643701e-001 1.020828e-001 8.473804e-002
      endloop
   endfacet
   facet normal 0.000000e+000 0.000000e+000 -1.000000e+000
      outer loop
         vertex 2.643701e-001 1.020828e-001 8.473804e-002
         vertex 2.338901e-001 9.954278e-002 8.473804e-002
         vertex 2.338901e-001 1.020828e-001 8.473804e-002
      endloop
   endfacet
   facet normal 1.000000e+000 0.000000e+000 0.000000e+000
      outer loop
         vertex 2.338901e-001 9.954278e-002 8.473804e-002
         vertex 2.338901e-001 9.954278e-002 3.369925e-002
         vertex 2.338901e-001 1.020828e-001 8.473804e-002
      endloop
   endfacet
   facet normal 1.000000e+000 0.000000e+000 0.000000e+000
      outer loop
         vertex 2.338901e-001 1.020828e-001 8.473804e-002
         vertex 2.338901e-001 9.954278e-002 3.369925e-002
         vertex 2.338901e-001 1.020828e-001 3.369925e-002
      endloop
   endfacet
   facet normal 0.000000e+000 0.000000e+000 1.000000e+000
      outer loop
         vertex 2.338901e-001 9.954278e-002 3.369925e-002
         vertex 2.643701e-001 9.954278e-002 3.369925e-002
         vertex 2.338901e-001 1.020828e-001 3.369925e-002
      endloop
   endfacet
   facet normal 0.000000e+000 0.000000e+000 1.000000e+000
      outer loop
         vertex 2.338901e-001 1.020828e-001 3.369925e-002
         vertex 2.643701e-001 9.954278e-002 3.369925e-002
         vertex 2.643701e-001 1.020828e-001 3.369925e-002
      endloop
   endfacet
   facet normal 0.000000e+000 1.000000e+000 0.000000e+000
      outer loop
         vertex 2.338901e-001 9.954278e-002 3.369925e-002
         vertex 2.338901e-001 9.954278e-002 8.473804e-002
         vertex 2.643701e-001 9.954278e-002 3.369925e-002
      endloop
   endfacet
   facet normal 0.000000e+000 1.000000e+000 0.000000e+000
      outer loop
         vertex 2.643701e-001 9.954278e-002 3.369925e-002
         vertex 2.338901e-001 9.954278e-002 8.473804e-002
         vertex 2.643701e-001 9.954278e-002 8.473804e-002
      endloop
   endfacet
   facet normal 1.000000e+000 0.000000e+000 0.000000e+000
      outer loop
         vertex 1.799013e-002 3.022784e-003 3.369925e-002
         vertex 1.799013e-002 3.022784e-003 8.473804e-002
         vertex 1.799013e-002 4.827842e-004 3.369925e-002
      endloop
   endfacet
   facet normal 1.000000e+000 0.000000e+000 0.000000e+000
      outer loop
         vertex 1.799013e-002 4.827842e-004 3.369925e-002
         vertex 1.799013e-002 3.022784e-003 8.473804e-002
         vertex 1.799013e-002 4.827842e-004 8.473804e-002
      endloop
   endfacet
   facet normal 0.000000e+000 0.000000e+000 -1.000000e+000
      outer loop
         vertex 1.799013e-002 3.022784e-003 8.473804e-002
         vertex 4.847013e-002 3.022784e-003 8.473804e-002
         vertex 1.799013e-002 4.827842e-004 8.473804e-002
      endloop
   endfacet
   facet normal 0.000000e+000 0.000000e+000 -1.000000e+000
      outer loop
         vertex 1.799013e-002 4.827842e-004 8.473804e-002
         vertex 4.847013e-002 3.022784e-003 8.473804e-002
         vertex 4.847013e-002 4.827842e-004 8.473804e-002
      endloop
   endfacet
   facet normal -1.000000e+000 0.000000e+000 0.000000e+000
      outer loop
         vertex 4.847013e-002 3.022784e-003 8.473804e-002
         vertex 4.847013e-002 3.022784e-003 3.369925e-002
         vertex 4.847013e-002 4.827842e-004 8.473804e-002
      endloop
   endfacet
   facet normal -1.000000e+000 0.000000e+000 0.000000e+000
      outer loop
         vertex 4.847013e-002 4.827842e-004 8.473804e-002
         vertex 4.847013e-002 3.022784e-003 3.369925e-002
         vertex 4.847013e-002 4.827842e-004 3.369925e-002
      endloop
   endfacet
   facet normal 0.000000e+000 0.000000e+000 1.000000e+000
      outer loop
         vertex 4.847013e-002 3.022784e-003 3.369925e-002
         vertex 1.799013e-002 3.022784e-003 3.369925e-002
         vertex 4.847013e-002 4.827842e-004 3.369925e-002
      endloop
   endfacet
   facet normal 0.000000e+000 0.000000e+000 1.000000e+000
      outer loop
         vertex 4.847013e-002 4.827842e-004 3.369925e-002
         vertex 1.799013e-002 3.022784e-003 3.369925e-002
         vertex 1.799013e-002 4.827842e-004 3.369925e-002
      endloop
   endfacet
   facet normal 0.000000e+000 -1.000000e+000 0.000000e+000
      outer loop
         vertex 4.847013e-002 3.022784e-003 3.369925e-002
         vertex 4.847013e-002 3.022784e-003 8.473804e-002
         vertex 1.799013e-002 3.022784e-003 3.369925e-002
      endloop
   endfacet
   facet normal 0.000000e+000 -1.000000e+000 0.000000e+000
      outer loop
         vertex 1.799013e-002 3.022784e-003 3.369925e-002
         vertex 4.847013e-002 3.022784e-003 8.473804e-002
         vertex 1.799013e-002 3.022784e-003 8.473804e-002
      endloop
   endfacet
   facet normal -1.000000e+000 0.000000e+000 0.000000e+000
      outer loop
         vertex 2.643701e-001 3.022784e-003 8.473804e-002
         vertex 2.643701e-001 3.022784e-003 3.369925e-002
         vertex 2.643701e-001 4.827842e-004 8.473804e-002
      endloop
   endfacet
   facet normal -1.000000e+000 0.000000e+000 0.000000e+000
      outer loop
         vertex 2.643701e-001 4.827842e-004 8.473804e-002
         vertex 2.643701e-001 3.022784e-003 3.369925e-002
         vertex 2.643701e-001 4.827842e-004 3.369925e-002
      endloop
   endfacet
   facet normal 0.000000e+000 0.000000e+000 1.000000e+000
      outer loop
         vertex 2.643701e-001 3.022784e-003 3.369925e-002
         vertex 2.338901e-001 3.022784e-003 3.369925e-002
         vertex 2.643701e-001 4.827842e-004 3.369925e-002
      endloop
   endfacet
   facet normal 0.000000e+000 0.000000e+000 1.000000e+000
      outer loop
         vertex 2.643701e-001 4.827842e-004 3.369925e-002
         vertex 2.338901e-001 3.022784e-003 3.369925e-002
         vertex 2.338901e-001 4.827842e-004 3.369925e-002
      endloop
   endfacet
   facet normal 1.000000e+000 0.000000e+000 0.000000e+000
      outer loop
         vertex 2.338901e-001 3.022784e-003 3.369925e-002
         vertex 2.338901e-001 3.022784e-003 8.473804e-002
         vertex 2.338901e-001 4.827842e-004 3.369925e-002
      endloop
   endfacet
   facet normal 1.000000e+000 0.000000e+000 0.000000e+000
      outer loop
         vertex 2.338901e-001 4.827842e-004 3.369925e-002
         vertex 2.338901e-001 3.022784e-003 8.473804e-002
         vertex 2.338901e-001 4.827842e-004 8.473804e-002
      endloop
   endfacet
   facet normal 0.000000e+000 0.000000e+000 -1.000000e+000
      outer loop
         vertex 2.338901e-001 3.022784e-003 8.473804e-002
         vertex 2.643701e-001 3.022784e-003 8.473804e-002
         vertex 2.338901e-001 4.827842e-004 8.473804e-002
      endloop
   endfacet
   facet normal 0.000000e+000 0.000000e+000 -1.000000e+000
      outer loop
         vertex 2.338901e-001 4.827842e-004 8.473804e-002
         vertex 2.643701e-001 3.022784e-003 8.473804e-002
         vertex 2.643701e-001 4.827842e-004 8.473804e-002
      endloop
   endfacet
   facet normal 0.000000e+000 -1.000000e+000 0.000000e+000
      outer loop
         vertex 2.338901e-001 3.022784e-003 8.473804e-002
         vertex 2.338901e-001 3.022784e-003 3.369925e-002
         vertex 2.643701e-001 3.022784e-003 8.473804e-002
      endloop
   endfacet
   facet normal 0.000000e+000 -1.000000e+000 0.000000e+000
      outer loop
         vertex 2.643701e-001 3.022784e-003 8.473804e-002
         vertex 2.338901e-001 3.022784e-003 3.369925e-002
         vertex 2.643701e-001 3.022784e-003 3.369925e-002
      endloop
   endfacet
endsolid